<mxfile host="app.diagrams.net" modified="2024-06-08T11:43:23.559Z" agent="Mozilla/5.0 (Windows NT 10.0; Win64; x64) AppleWebKit/537.36 (KHTML, like Gecko) Chrome/122.0.0.0 YaBrowser/24.4.0.0 Safari/537.36" etag="oGhV5lH2WrSOyJUN-TnV" version="24.5.2" type="device">
  <diagram name="ДПС лифта" id="ViV0qKlwYsVtwToXWygZ">
    <mxGraphModel dx="1050" dy="575" grid="1" gridSize="10" guides="1" tooltips="1" connect="1" arrows="1" fold="1" page="1" pageScale="1" pageWidth="2336" pageHeight="1654" math="0" shadow="0">
      <root>
        <mxCell id="0" />
        <mxCell id="1" parent="0" />
        <mxCell id="2gDo3BQqO2C97RwKKdHj-9" value="Время ожидания" style="edgeStyle=orthogonalEdgeStyle;rounded=0;orthogonalLoop=1;jettySize=auto;html=1;exitX=0;exitY=0.5;exitDx=0;exitDy=0;entryX=0.5;entryY=0;entryDx=0;entryDy=0;" parent="1" source="2gDo3BQqO2C97RwKKdHj-1" target="2gDo3BQqO2C97RwKKdHj-8" edge="1">
          <mxGeometry relative="1" as="geometry" />
        </mxCell>
        <mxCell id="2gDo3BQqO2C97RwKKdHj-1" value="Двери открыты" style="rounded=0;whiteSpace=wrap;html=1;" parent="1" vertex="1">
          <mxGeometry x="260" y="200" width="70" height="40" as="geometry" />
        </mxCell>
        <mxCell id="2gDo3BQqO2C97RwKKdHj-2" value="Двери" style="text;html=1;align=center;verticalAlign=middle;whiteSpace=wrap;rounded=0;fontSize=18;" parent="1" vertex="1">
          <mxGeometry x="180" y="140" width="60" height="30" as="geometry" />
        </mxCell>
        <mxCell id="2gDo3BQqO2C97RwKKdHj-3" value="Контроллер" style="text;html=1;align=center;verticalAlign=middle;whiteSpace=wrap;rounded=0;fontSize=18;" parent="1" vertex="1">
          <mxGeometry x="700" y="140" width="60" height="30" as="geometry" />
        </mxCell>
        <mxCell id="2gDo3BQqO2C97RwKKdHj-4" value="Кнопка" style="text;html=1;align=center;verticalAlign=middle;whiteSpace=wrap;rounded=0;fontSize=18;" parent="1" vertex="1">
          <mxGeometry x="180" y="470" width="60" height="30" as="geometry" />
        </mxCell>
        <mxCell id="2gDo3BQqO2C97RwKKdHj-5" value="Кабина&amp;nbsp;" style="text;html=1;align=center;verticalAlign=middle;whiteSpace=wrap;rounded=0;fontSize=18;" parent="1" vertex="1">
          <mxGeometry x="700" y="470" width="60" height="30" as="geometry" />
        </mxCell>
        <mxCell id="2gDo3BQqO2C97RwKKdHj-10" value="Время открывания" style="edgeStyle=orthogonalEdgeStyle;rounded=0;orthogonalLoop=1;jettySize=auto;html=1;exitX=0.5;exitY=0;exitDx=0;exitDy=0;entryX=1;entryY=0.5;entryDx=0;entryDy=0;" parent="1" source="2gDo3BQqO2C97RwKKdHj-6" target="2gDo3BQqO2C97RwKKdHj-1" edge="1">
          <mxGeometry relative="1" as="geometry" />
        </mxCell>
        <mxCell id="2gDo3BQqO2C97RwKKdHj-6" value="Двери открываются" style="rounded=0;whiteSpace=wrap;html=1;" parent="1" vertex="1">
          <mxGeometry x="370" y="280" width="80" height="40" as="geometry" />
        </mxCell>
        <mxCell id="2gDo3BQqO2C97RwKKdHj-11" value="" style="edgeStyle=orthogonalEdgeStyle;rounded=0;orthogonalLoop=1;jettySize=auto;html=1;exitX=1;exitY=0.5;exitDx=0;exitDy=0;entryX=0.5;entryY=1;entryDx=0;entryDy=0;" parent="1" source="2gDo3BQqO2C97RwKKdHj-7" target="2gDo3BQqO2C97RwKKdHj-6" edge="1">
          <mxGeometry relative="1" as="geometry" />
        </mxCell>
        <mxCell id="1Hp3-lnBUeghpZRX9uwr-5" value="Открыть" style="edgeLabel;html=1;align=center;verticalAlign=middle;resizable=0;points=[];" parent="2gDo3BQqO2C97RwKKdHj-11" vertex="1" connectable="0">
          <mxGeometry x="-0.0171" y="1" relative="1" as="geometry">
            <mxPoint as="offset" />
          </mxGeometry>
        </mxCell>
        <mxCell id="2gDo3BQqO2C97RwKKdHj-7" value="Двери закрыты" style="rounded=0;whiteSpace=wrap;html=1;fillColor=#dae8fc;strokeColor=#6c8ebf;" parent="1" vertex="1">
          <mxGeometry x="260" y="360" width="70" height="40" as="geometry" />
        </mxCell>
        <mxCell id="2gDo3BQqO2C97RwKKdHj-12" value="Время закрывания" style="edgeStyle=orthogonalEdgeStyle;rounded=0;orthogonalLoop=1;jettySize=auto;html=1;exitX=0.5;exitY=1;exitDx=0;exitDy=0;entryX=0;entryY=0.5;entryDx=0;entryDy=0;" parent="1" source="2gDo3BQqO2C97RwKKdHj-8" target="2gDo3BQqO2C97RwKKdHj-7" edge="1">
          <mxGeometry relative="1" as="geometry" />
        </mxCell>
        <mxCell id="2gDo3BQqO2C97RwKKdHj-13" style="edgeStyle=orthogonalEdgeStyle;rounded=0;orthogonalLoop=1;jettySize=auto;html=1;exitX=1;exitY=0.5;exitDx=0;exitDy=0;entryX=0;entryY=0.5;entryDx=0;entryDy=0;" parent="1" source="2gDo3BQqO2C97RwKKdHj-8" target="2gDo3BQqO2C97RwKKdHj-6" edge="1">
          <mxGeometry relative="1" as="geometry" />
        </mxCell>
        <mxCell id="lF5VUnWABReuihg8N5pp-5" value="Открыть" style="edgeLabel;html=1;align=center;verticalAlign=middle;resizable=0;points=[];" parent="2gDo3BQqO2C97RwKKdHj-13" vertex="1" connectable="0">
          <mxGeometry x="-0.0029" y="3" relative="1" as="geometry">
            <mxPoint as="offset" />
          </mxGeometry>
        </mxCell>
        <mxCell id="2gDo3BQqO2C97RwKKdHj-8" value="Двери закрываются" style="rounded=0;whiteSpace=wrap;html=1;" parent="1" vertex="1">
          <mxGeometry x="150" y="280" width="80" height="40" as="geometry" />
        </mxCell>
        <mxCell id="2gDo3BQqO2C97RwKKdHj-18" style="edgeStyle=orthogonalEdgeStyle;rounded=0;orthogonalLoop=1;jettySize=auto;html=1;exitX=0;exitY=0.5;exitDx=0;exitDy=0;entryX=0;entryY=0.5;entryDx=0;entryDy=0;" parent="1" source="2gDo3BQqO2C97RwKKdHj-14" target="2gDo3BQqO2C97RwKKdHj-15" edge="1">
          <mxGeometry relative="1" as="geometry">
            <Array as="points">
              <mxPoint x="180" y="555" />
              <mxPoint x="180" y="635" />
            </Array>
          </mxGeometry>
        </mxCell>
        <mxCell id="1Hp3-lnBUeghpZRX9uwr-7" value="Отжать" style="edgeLabel;html=1;align=center;verticalAlign=middle;resizable=0;points=[];" parent="2gDo3BQqO2C97RwKKdHj-18" vertex="1" connectable="0">
          <mxGeometry x="-0.0433" y="1" relative="1" as="geometry">
            <mxPoint as="offset" />
          </mxGeometry>
        </mxCell>
        <mxCell id="2gDo3BQqO2C97RwKKdHj-14" value="Нажата" style="rounded=0;whiteSpace=wrap;html=1;" parent="1" vertex="1">
          <mxGeometry x="210" y="540" width="60" height="30" as="geometry" />
        </mxCell>
        <mxCell id="2gDo3BQqO2C97RwKKdHj-16" style="edgeStyle=orthogonalEdgeStyle;rounded=0;orthogonalLoop=1;jettySize=auto;html=1;exitX=1;exitY=0.5;exitDx=0;exitDy=0;entryX=1;entryY=0.5;entryDx=0;entryDy=0;" parent="1" source="2gDo3BQqO2C97RwKKdHj-15" target="2gDo3BQqO2C97RwKKdHj-14" edge="1">
          <mxGeometry relative="1" as="geometry" />
        </mxCell>
        <mxCell id="1Hp3-lnBUeghpZRX9uwr-6" value="Нажать" style="edgeLabel;html=1;align=center;verticalAlign=middle;resizable=0;points=[];" parent="2gDo3BQqO2C97RwKKdHj-16" vertex="1" connectable="0">
          <mxGeometry x="-0.2215" y="1" relative="1" as="geometry">
            <mxPoint as="offset" />
          </mxGeometry>
        </mxCell>
        <mxCell id="2gDo3BQqO2C97RwKKdHj-15" value="Не нажата" style="rounded=0;whiteSpace=wrap;html=1;fillColor=#dae8fc;strokeColor=#6c8ebf;" parent="1" vertex="1">
          <mxGeometry x="210" y="620" width="70" height="30" as="geometry" />
        </mxCell>
        <mxCell id="1Hp3-lnBUeghpZRX9uwr-27" style="edgeStyle=orthogonalEdgeStyle;rounded=0;orthogonalLoop=1;jettySize=auto;html=1;exitX=0.5;exitY=0;exitDx=0;exitDy=0;entryX=0.5;entryY=0;entryDx=0;entryDy=0;" parent="1" source="2gDo3BQqO2C97RwKKdHj-19" target="1Hp3-lnBUeghpZRX9uwr-19" edge="1">
          <mxGeometry relative="1" as="geometry" />
        </mxCell>
        <mxCell id="1Hp3-lnBUeghpZRX9uwr-28" value="Принять цель" style="edgeLabel;html=1;align=center;verticalAlign=middle;resizable=0;points=[];" parent="1Hp3-lnBUeghpZRX9uwr-27" vertex="1" connectable="0">
          <mxGeometry x="-0.01" y="1" relative="1" as="geometry">
            <mxPoint as="offset" />
          </mxGeometry>
        </mxCell>
        <mxCell id="MfaRD-3fd4rTcoZ4Z0z9-1" value="Остановить" style="edgeStyle=orthogonalEdgeStyle;rounded=0;orthogonalLoop=1;jettySize=auto;html=1;exitX=0.25;exitY=1;exitDx=0;exitDy=0;entryX=0.25;entryY=0;entryDx=0;entryDy=0;" edge="1" parent="1" source="2gDo3BQqO2C97RwKKdHj-19" target="2gDo3BQqO2C97RwKKdHj-20">
          <mxGeometry x="0.1429" y="-2" relative="1" as="geometry">
            <mxPoint as="offset" />
          </mxGeometry>
        </mxCell>
        <mxCell id="2gDo3BQqO2C97RwKKdHj-19" value="Цель есть" style="rounded=0;whiteSpace=wrap;html=1;" parent="1" vertex="1">
          <mxGeometry x="610" y="270" width="90" height="30" as="geometry" />
        </mxCell>
        <mxCell id="w8LPeQsD2zqLCJCFaowL-9" style="edgeStyle=orthogonalEdgeStyle;rounded=0;orthogonalLoop=1;jettySize=auto;html=1;exitX=1;exitY=0.5;exitDx=0;exitDy=0;entryX=0;entryY=0.5;entryDx=0;entryDy=0;" parent="1" source="2gDo3BQqO2C97RwKKdHj-20" target="w8LPeQsD2zqLCJCFaowL-3" edge="1">
          <mxGeometry relative="1" as="geometry" />
        </mxCell>
        <mxCell id="w8LPeQsD2zqLCJCFaowL-10" value="Принять цель" style="edgeLabel;html=1;align=center;verticalAlign=middle;resizable=0;points=[];" parent="w8LPeQsD2zqLCJCFaowL-9" vertex="1" connectable="0">
          <mxGeometry x="0.064" y="1" relative="1" as="geometry">
            <mxPoint x="-9" y="16" as="offset" />
          </mxGeometry>
        </mxCell>
        <mxCell id="2gDo3BQqO2C97RwKKdHj-20" value="Цели нет" style="rounded=0;whiteSpace=wrap;html=1;fillColor=#dae8fc;strokeColor=#6c8ebf;" parent="1" vertex="1">
          <mxGeometry x="610" y="370" width="90" height="30" as="geometry" />
        </mxCell>
        <mxCell id="2gDo3BQqO2C97RwKKdHj-27" style="edgeStyle=orthogonalEdgeStyle;rounded=0;orthogonalLoop=1;jettySize=auto;html=1;exitX=1;exitY=0.5;exitDx=0;exitDy=0;" parent="1" source="2gDo3BQqO2C97RwKKdHj-23" target="2gDo3BQqO2C97RwKKdHj-24" edge="1">
          <mxGeometry relative="1" as="geometry" />
        </mxCell>
        <mxCell id="1Hp3-lnBUeghpZRX9uwr-8" value="Заметить цель" style="edgeLabel;html=1;align=center;verticalAlign=middle;resizable=0;points=[];" parent="2gDo3BQqO2C97RwKKdHj-27" vertex="1" connectable="0">
          <mxGeometry x="0.0267" y="-1" relative="1" as="geometry">
            <mxPoint x="-21" y="-8" as="offset" />
          </mxGeometry>
        </mxCell>
        <mxCell id="2gDo3BQqO2C97RwKKdHj-23" value="Ожидание" style="rounded=0;whiteSpace=wrap;html=1;fillColor=#dae8fc;strokeColor=#6c8ebf;" parent="1" vertex="1">
          <mxGeometry x="745" y="630" width="70" height="30" as="geometry" />
        </mxCell>
        <mxCell id="2gDo3BQqO2C97RwKKdHj-28" style="edgeStyle=orthogonalEdgeStyle;rounded=0;orthogonalLoop=1;jettySize=auto;html=1;exitX=0;exitY=0.5;exitDx=0;exitDy=0;entryX=1;entryY=0.5;entryDx=0;entryDy=0;" parent="1" source="2gDo3BQqO2C97RwKKdHj-24" target="2gDo3BQqO2C97RwKKdHj-25" edge="1">
          <mxGeometry relative="1" as="geometry" />
        </mxCell>
        <mxCell id="1Hp3-lnBUeghpZRX9uwr-9" value="Переместить" style="edgeLabel;html=1;align=center;verticalAlign=middle;resizable=0;points=[];" parent="2gDo3BQqO2C97RwKKdHj-28" vertex="1" connectable="0">
          <mxGeometry x="-0.0248" y="1" relative="1" as="geometry">
            <mxPoint as="offset" />
          </mxGeometry>
        </mxCell>
        <mxCell id="2gDo3BQqO2C97RwKKdHj-24" value="Появился &quot;активный&quot; этаж" style="rounded=0;whiteSpace=wrap;html=1;" parent="1" vertex="1">
          <mxGeometry x="825" y="520" width="70" height="50" as="geometry" />
        </mxCell>
        <mxCell id="1Hp3-lnBUeghpZRX9uwr-16" style="edgeStyle=orthogonalEdgeStyle;rounded=0;orthogonalLoop=1;jettySize=auto;html=1;exitX=0;exitY=0.5;exitDx=0;exitDy=0;entryX=0;entryY=0;entryDx=0;entryDy=0;" parent="1" source="2gDo3BQqO2C97RwKKdHj-25" target="1Hp3-lnBUeghpZRX9uwr-10" edge="1">
          <mxGeometry relative="1" as="geometry" />
        </mxCell>
        <mxCell id="1Hp3-lnBUeghpZRX9uwr-18" value="Остановить" style="edgeLabel;html=1;align=center;verticalAlign=middle;resizable=0;points=[];" parent="1Hp3-lnBUeghpZRX9uwr-16" vertex="1" connectable="0">
          <mxGeometry x="-0.1117" y="2" relative="1" as="geometry">
            <mxPoint as="offset" />
          </mxGeometry>
        </mxCell>
        <mxCell id="2gDo3BQqO2C97RwKKdHj-25" value="Едет" style="rounded=0;whiteSpace=wrap;html=1;" parent="1" vertex="1">
          <mxGeometry x="650" y="530" width="70" height="30" as="geometry" />
        </mxCell>
        <mxCell id="1Hp3-lnBUeghpZRX9uwr-10" value="Промежуточная остановка" style="rounded=0;whiteSpace=wrap;html=1;" parent="1" vertex="1">
          <mxGeometry x="490" y="630" width="100" height="30" as="geometry" />
        </mxCell>
        <mxCell id="1Hp3-lnBUeghpZRX9uwr-17" style="edgeStyle=orthogonalEdgeStyle;rounded=0;orthogonalLoop=1;jettySize=auto;html=1;exitX=0.5;exitY=1;exitDx=0;exitDy=0;" parent="1" source="1Hp3-lnBUeghpZRX9uwr-10" target="1Hp3-lnBUeghpZRX9uwr-10" edge="1">
          <mxGeometry relative="1" as="geometry" />
        </mxCell>
        <mxCell id="1Hp3-lnBUeghpZRX9uwr-21" style="edgeStyle=orthogonalEdgeStyle;rounded=0;orthogonalLoop=1;jettySize=auto;html=1;exitX=0;exitY=0.5;exitDx=0;exitDy=0;entryX=1;entryY=0.5;entryDx=0;entryDy=0;" parent="1" source="1Hp3-lnBUeghpZRX9uwr-19" target="2gDo3BQqO2C97RwKKdHj-19" edge="1">
          <mxGeometry relative="1" as="geometry" />
        </mxCell>
        <mxCell id="1Hp3-lnBUeghpZRX9uwr-25" value="Выполнить" style="edgeLabel;html=1;align=center;verticalAlign=middle;resizable=0;points=[];" parent="1Hp3-lnBUeghpZRX9uwr-21" vertex="1" connectable="0">
          <mxGeometry x="-0.127" relative="1" as="geometry">
            <mxPoint as="offset" />
          </mxGeometry>
        </mxCell>
        <mxCell id="1Hp3-lnBUeghpZRX9uwr-19" value="Цель появилась" style="rounded=0;whiteSpace=wrap;html=1;" parent="1" vertex="1">
          <mxGeometry x="850" y="270" width="80" height="30" as="geometry" />
        </mxCell>
        <mxCell id="w8LPeQsD2zqLCJCFaowL-19" style="edgeStyle=orthogonalEdgeStyle;rounded=0;orthogonalLoop=1;jettySize=auto;html=1;exitX=0.5;exitY=0;exitDx=0;exitDy=0;entryX=0.75;entryY=1;entryDx=0;entryDy=0;" parent="1" source="w8LPeQsD2zqLCJCFaowL-3" target="2gDo3BQqO2C97RwKKdHj-19" edge="1">
          <mxGeometry relative="1" as="geometry" />
        </mxCell>
        <mxCell id="w8LPeQsD2zqLCJCFaowL-20" value="Выполнить" style="edgeLabel;html=1;align=center;verticalAlign=middle;resizable=0;points=[];" parent="w8LPeQsD2zqLCJCFaowL-19" vertex="1" connectable="0">
          <mxGeometry x="-0.1575" y="1" relative="1" as="geometry">
            <mxPoint as="offset" />
          </mxGeometry>
        </mxCell>
        <mxCell id="w8LPeQsD2zqLCJCFaowL-3" value="Цель задается" style="rounded=0;whiteSpace=wrap;html=1;" parent="1" vertex="1">
          <mxGeometry x="850" y="370" width="80" height="30" as="geometry" />
        </mxCell>
        <mxCell id="w8LPeQsD2zqLCJCFaowL-14" style="edgeStyle=orthogonalEdgeStyle;rounded=0;orthogonalLoop=1;jettySize=auto;html=1;exitX=1;exitY=0.5;exitDx=0;exitDy=0;" parent="1" source="w8LPeQsD2zqLCJCFaowL-11" target="2gDo3BQqO2C97RwKKdHj-23" edge="1">
          <mxGeometry relative="1" as="geometry" />
        </mxCell>
        <mxCell id="w8LPeQsD2zqLCJCFaowL-18" value="Ожидать" style="edgeLabel;html=1;align=center;verticalAlign=middle;resizable=0;points=[];" parent="w8LPeQsD2zqLCJCFaowL-14" vertex="1" connectable="0">
          <mxGeometry x="-0.3642" y="-2" relative="1" as="geometry">
            <mxPoint as="offset" />
          </mxGeometry>
        </mxCell>
        <mxCell id="w8LPeQsD2zqLCJCFaowL-15" style="edgeStyle=orthogonalEdgeStyle;rounded=0;orthogonalLoop=1;jettySize=auto;html=1;exitX=0.5;exitY=0;exitDx=0;exitDy=0;entryX=0.25;entryY=1;entryDx=0;entryDy=0;" parent="1" source="w8LPeQsD2zqLCJCFaowL-11" target="2gDo3BQqO2C97RwKKdHj-25" edge="1">
          <mxGeometry relative="1" as="geometry" />
        </mxCell>
        <mxCell id="w8LPeQsD2zqLCJCFaowL-16" value="Переместить" style="edgeLabel;html=1;align=center;verticalAlign=middle;resizable=0;points=[];" parent="w8LPeQsD2zqLCJCFaowL-15" vertex="1" connectable="0">
          <mxGeometry x="-0.1569" y="-2" relative="1" as="geometry">
            <mxPoint as="offset" />
          </mxGeometry>
        </mxCell>
        <mxCell id="w8LPeQsD2zqLCJCFaowL-11" value="На нужном месте" style="rounded=0;whiteSpace=wrap;html=1;" parent="1" vertex="1">
          <mxGeometry x="620" y="590" width="90" height="30" as="geometry" />
        </mxCell>
        <mxCell id="w8LPeQsD2zqLCJCFaowL-12" style="edgeStyle=orthogonalEdgeStyle;rounded=0;orthogonalLoop=1;jettySize=auto;html=1;exitX=1;exitY=0.5;exitDx=0;exitDy=0;entryX=0.649;entryY=1.053;entryDx=0;entryDy=0;entryPerimeter=0;" parent="1" source="1Hp3-lnBUeghpZRX9uwr-10" target="w8LPeQsD2zqLCJCFaowL-11" edge="1">
          <mxGeometry relative="1" as="geometry" />
        </mxCell>
        <mxCell id="w8LPeQsD2zqLCJCFaowL-17" value="Уведомить" style="edgeLabel;html=1;align=center;verticalAlign=middle;resizable=0;points=[];" parent="w8LPeQsD2zqLCJCFaowL-12" vertex="1" connectable="0">
          <mxGeometry x="-0.263" y="-1" relative="1" as="geometry">
            <mxPoint as="offset" />
          </mxGeometry>
        </mxCell>
      </root>
    </mxGraphModel>
  </diagram>
</mxfile>
